<?xml version="1.0" encoding="UTF-8"?>
<svg version="1.1" viewBox="0 0 64 64" xmlns="http://www.w3.org/2000/svg">
  <path d="M0,0h64v64H0V0z" fill="#FF5E49" class="icon-background"/>
  <g fill="#fff" class="icon-foreground">
    <path d="m32 18.699a13.3 13.3 0 0 0-13.301 13.301 13.3 13.3 0 0 0 13.301 13.301 13.3 13.3 0 0 0 13.301-13.301 13.3 13.3 0 0 0-13.301-13.301zm-4 6.9004 11 6.4004-11 6.4004v-12.801z"/>
    <path d="M34,10.9v3c9.1,1,16.3,8.7,16.3,18.1S43.1,49.1,34,50.1v3c10.8-1,19.3-10.1,19.3-21.1S44.8,11.9,34,10.9z"/>
    <path d="m23.2 12.7 1.5 2.6c1.7-0.7 3.5-1.2 5.3-1.4v-3c-2.4 0.2-4.7 0.8-6.8 1.8z" opacity=".5"/>
    <path d="m17.3 21.2c1.1-1.5 2.4-2.8 3.9-3.9l-1.5-2.6c-1.9 1.4-3.6 3.1-5 5l2.6 1.5z" opacity=".5"/>
    <path d="m13.9 30c0.2-1.9 0.7-3.7 1.4-5.3l-2.6-1.5c-1 2.1-1.6 4.4-1.8 6.8h3z" opacity=".5"/>
    <path d="m15.3 39.3c-0.7-1.7-1.2-3.5-1.4-5.3h-3c0.2 2.4 0.9 4.7 1.8 6.8l2.6-1.5z" opacity=".5"/>
    <path d="m17.3 42.8-2.6 1.5c1.4 1.9 3.1 3.6 5 5l1.5-2.6c-1.5-1.1-2.8-2.4-3.9-3.9z" opacity=".5"/>
    <path d="m30 50.1c-1.9-0.2-3.7-0.7-5.3-1.4l-1.5 2.6c2.1 1 4.4 1.6 6.8 1.8v-3z" opacity=".5"/>
  </g>
</svg>
