<?xml version="1.0" encoding="UTF-8"?>
<svg version="1.1" viewBox="0 0 64 64" xmlns="http://www.w3.org/2000/svg">
  <rect width="64" height="64" fill="#428859" class="icon-background"/>
  <g fill="#fff" class="icon-foreground">
    <path d="m17 16c-0.552 0-1 0.448-1 1v6c0 0.552 0.448 1 1 1h30c0.552 0 1-0.448 1-1v-6c0-0.552-0.448-1-1-1h-30zm23 4h2v2h-2v-2zm4 0h2v2h-2v-2z"/>
    <path d="m17 26c-0.552 0-1 0.448-1 1v6c0 0.552 0.448 1 1 1h30c0.552 0 1-0.448 1-1v-6c0-0.552-0.448-1-1-1h-30zm23 4h2v2h-2v-2zm4 0h2v2h-2v-2z"/>
    <path d="m17 36c-0.552 0-1 0.448-1 1v10c0 0.552 0.448 1 1 1h30c0.552 0 1-0.448 1-1v-10c0-0.552-0.448-1-1-1h-30zm23 8h2v2h-2v-2zm4 0h2v2h-2v-2z"/>
  </g>
</svg>
