<?xml version="1.0" encoding="UTF-8"?>
<svg version="1.1" viewBox="0 0 64 64" xmlns="http://www.w3.org/2000/svg">
  <rect width="64" height="64" fill="#A4276A" class="icon-background"/>
  <g fill="#fff" class="icon-foreground">
    <path d="m15 14c-0.5 0-1 0.5-1 1v34c0 0.5 0.5 1 1 1h34c0.5 0 1-0.5 1-1v-31h-10-2-10-2v-2-2h-11zm3 8h18v14h-18v-14zm20 0h8v14h-8v-14zm-20 18h8v6h-8v-6zm10 0h18v2h-18v-2zm0 4h10v2h-10v-2z"/>
    <path d="m40 16h10v-1c0-0.5-0.5-1-1-1h-9v2z" opacity=".5"/>
    <rect x="28" y="14" width="10" height="2" opacity=".25"/>
    <rect x="38" y="24" width="8" height="12" opacity=".5"/>
    <polygon points="36 36 18 36 18 32 24 30 28 32 32 30 36 24" clip-rule="evenodd" fill-rule="evenodd" opacity=".5"/>
    <rect x="18" y="42" width="8" height="4" opacity=".5"/>
  </g>
</svg>
