<?xml version="1.0" encoding="UTF-8"?>
<svg version="1.1" viewBox="0 0 64 64" xmlns="http://www.w3.org/2000/svg">
  <rect width="64" height="64" fill="#184F44" class="icon-background"/>
  <path d="m32 15.5c-5.523 0-10 4.477-10 10v4.5h-3c-0.552 0-1 0.448-1 1v16c0 0.552 0.448 1 1 1h26c0.552 0 1-0.448 1-1v-16c0-0.552-0.448-1-1-1h-19v-4.5c0-3.308 2.692-6 6-6s6 2.692 6 6h4c0-5.523-4.477-10-10-10zm0 18.5a4 4 0 0 1 4 4 4 4 0 0 1-2 3.4531v2.5469h-4v-2.5469a4 4 0 0 1-2-3.4531 4 4 0 0 1 4-4z" fill="#fff" class="icon-foreground"/>
</svg>
