<?xml version="1.0" encoding="UTF-8"?>
<svg version="1.1" viewBox="0 0 64 64" xmlns="http://www.w3.org/2000/svg">
  <rect width="64" height="64" fill="#439B92" class="icon-background"/>
  <g fill="#fff" class="icon-foreground">
    <path d="m14 12v6h36v-6h-36zm2 2h28v2h-28v-2zm30 0h2v2h-2v-2zm-32 6v32h4v-14h10v14h2v-14h16v14h4v-32h-36zm4 4h8v2h-8v-2zm10 0h2v2h-2v-2zm4 0h2v2h-2v-2zm8 0h2v2h-2v-2zm4 0h2v2h-2v-2zm-26 4h28v8h-28v-8z" />
    <rect x="16" y="14" width="28" height="2" opacity=".5"/>
    <rect x="14" y="18" width="36" height="2" opacity=".5"/>
    <rect x="18" y="28" width="28" height="8" opacity=".25"/>
    <rect x="18" y="38" width="10" height="14" opacity=".25"/>
    <rect x="30" y="38" width="16" height="14" opacity=".25"/>
    <rect x="28" y="24" width="2" height="2" opacity=".5"/>
    <rect x="32" y="24" width="2" height="2" opacity=".5"/>
    <rect x="40" y="24" width="2" height="2" opacity=".5"/>
    <rect x="44" y="24" width="2" height="2" opacity=".5"/>
  </g>
</svg>
