<?xml version="1.0" encoding="UTF-8"?>
<svg version="1.1" viewBox="0 0 64 64"  xmlns="http://www.w3.org/2000/svg">
  <rect width="64" height="64" fill="#D04139" class="icon-background"/>
  <g fill="#fff" class="icon-foreground">
    <path d="m40 14h-16v2h16z" opacity=".5"/>
    <rect x="30" y="26" width="10" height="18" opacity=".5"/>
    <path d="m19 14c-0.6 0-1 0.4-1 1v34c0 0.6 0.4 1 1 1h26c0.6 0 1-0.4 1-1v-34c0-0.6-0.4-1-1-1h-5l-2.6992 2h-10.602l-2.6992-2h-5zm7 6h12v2h-12v-2zm-2 6h4v2h-4v-2zm6 0h10v2h-10v-2zm-6 4h4v2h-4v-2zm6 0h10v2h-10v-2zm-6 4h4v2h-4v-2zm6 0h10v2h-10v-2zm-6 4h4v2h-4v-2zm6 0h10v2h-10v-2zm-6 4h4v2h-4v-2zm6 0h10v2h-10v-2z"/>
    <polygon points="40 14 24 14 26.7 12 37.3 12"/>
  </g>
</svg>
