<?xml version="1.0" encoding="UTF-8"?>
<svg version="1.1" viewBox="0 0 64 64" xmlns="http://www.w3.org/2000/svg">
  <rect width="64" height="64" fill="#3B7EB0" class="icon-background"/>
  <g fill="#fff" class="icon-foregorund">
    <path d="m18 14v4 32h-2v-31.992h-2v32h32v-36h-28zm4 4h14v2h-14v-2zm0 4h20v8h-20v-8zm0 10h2v2h-2v-2zm4 0h16v2h-16v-2zm-4 4h2v2h-2v-2zm4 0h16v2h-16v-2zm-4 6h8v4h-8v-4zm10 0h8v4h-8v-4z"/>
    <g opacity=".5">
      <rect x="32" y="42" width="8" height="4"/>
      <rect x="26" y="32" width="16" height="2"/>
      <rect x="26" y="36" width="16" height="2"/>
      <rect x="22" y="22" width="20" height="8"/>
      <rect x="16" y="18" width="2" height="32"/>
    </g>
  </g>
</svg>
