<?xml version="1.0" encoding="UTF-8"?>
<svg version="1.1" viewBox="0 0 64 64" xmlns="http://www.w3.org/2000/svg">
  <rect width="64" height="64" fill="#428954" class="icon-background"/>
  <g fill="#fff" class="icon-foreground">
    <path d="m16 22v14h32v-14h-32zm2 2h20v2h-20v-2zm22 0h6v2h-6v-2zm-22 4h20v2h-20v-2zm22 0h6v2h-6v-2zm-22 4h20v2h-20v-2zm22 0h6v2h-6v-2z"/>
    <polygon points="48 22 16 22 19 18 45 18" opacity=".5"/>
    <path d="M18,24h20v2H18V24z" opacity=".5"/>
    <path d="M18,28h20v2H18V28z" opacity=".5"/>
    <path d="M18,32h20v2H18V32z" opacity=".5"/>
    <path d="M48,42v2H16v-2H48z" opacity=".75"/>
    <path d="m30 37v3h-2v6h8v-6h-2v-3h-4z"/>
    <path d="m30 36h4v1h-4v-1z" opacity=".5"/>
  </g>
</svg>
