<?xml version="1.0" encoding="UTF-8"?>
<svg version="1.1" viewBox="0 0 64 64" xmlns="http://www.w3.org/2000/svg">
  <rect width="64" height="64" fill="#8B2F60" class="icon-background"/>
  <g fill="#fff" class="icon-foreground">
    <path d="m44 50h1c0.6 0 1-0.4 1-1v-5h-2v6z" opacity=".5"/>
    <rect x="44" y="36" width="2" height="6" opacity=".75"/>
    <rect x="44" y="28" width="2" height="6"/>
    <path d="m17 14c-0.6 0-1 0.4-1 1v34c0 0.6 0.4 1 1 1h25v-6-2-6-2-6-2h2 2v-11c0-0.6-0.4-1-1-1h-28zm3 4h16v2h-16v-2zm0 4h10v2h-10v-2zm0 4h10v2h-10v-2zm12 6h4v14h-4v-14zm-12 2h4v12h-4v-12zm6 4h4v8h-4v-8z"/>
    <rect x="20" y="40" width="4" height="6" opacity=".5"/>
    <rect x="26" y="40" width="4" height="6" opacity=".5"/>
    <rect x="32" y="34" width="4" height="12" opacity=".5"/>
  </g>
</svg>
